<svg id="Layer_1" data-name="Layer 1" xmlns="http://www.w3.org/2000/svg" viewBox="0 0 1990.45 2067.93"><defs><style>.cls-1{fill:none;}.cls-2{fill:#f5af41;}.cls-3{opacity:0.3;}.cls-4{fill:#6d184e;}.cls-5{fill:#f3b;}.cls-6{fill:#ff5cc9;}.cls-7{opacity:0.5;}.cls-8{fill:#fff;}.cls-9{fill:#0df4ff;}.cls-10{fill:#ffd00d;}.cls-11{fill:#ffd52b;}</style></defs><ellipse class="cls-1" cx="965.23" cy="958.93" rx="142.2" ry="197.81" transform="translate(-379.09 1168.77) rotate(-53.68)"/><path class="cls-2" d="M1431.84,324.15C963.3-20.26,382.82-26.39,135.25,310.43a550.5,550.5,0,0,0-59.79,103C-75,751.74,112,1232.61,535.38,1543.75c151.15,111,313.92,186.94,473.38,227.46,78.84,20,156.92,31.43,232.34,34.18,245.06,8.94,462.61-73.47,590.81-247.92a548.93,548.93,0,0,0,46-74.32C2052.78,1143.83,1867.25,644.18,1431.84,324.15ZM881,1073.54c-83.42-61.36-118-157.69-81.8-221.44a89,89,0,0,1,6.64-10.31c46.48-63.27,155.54-62.14,243.6,2.55s121.69,168.47,75.15,231.74c-12.28,16.73-28.92,28.9-48.38,36.63C1022,1134.34,945.79,1121.12,881,1073.54Z"/><g class="cls-3"><path class="cls-4" d="M1311.1,1685.39c-75.42-2.75-153.5-14.15-232.34-34.18-159.46-40.52-322.23-116.42-473.38-227.46C182,1112.61-5,631.74,145.46,293.45c.53-1.19,1.1-2.37,1.64-3.56-1.37,1.74-2.68,3.54-4,5.29a550.76,550.76,0,0,0-42.61,78.27C-50,711.74,137,1192.61,560.38,1503.75c151.15,111,313.92,186.94,473.38,227.46,78.84,20,156.92,31.43,232.34,34.18,239.73,8.74,453.08-70,582.26-236.73q-3.34,5.08-6.79,10.1a543.79,543.79,0,0,0,36.38-60.61c4.27-8.28,8.25-16.67,12.09-25.13C1760.54,1616.8,1548.76,1694.06,1311.1,1685.39Z"/></g><g class="cls-3"><ellipse class="cls-4" cx="976.65" cy="929.31" rx="195.32" ry="256.42" transform="translate(-349.13 1173.78) rotate(-54.03)"/></g><path class="cls-4" d="M1277,1829.75c-3.58,0-7.13,0-10.72-.06-249.8-2.64-514.34-97.42-744.9-266.88s-400-393.65-477.06-631.26c-78-240.39-52.45-465.94,71.9-635.13S448.09,35.36,700.93,38.2c249.79,2.64,514.34,97.42,744.89,266.88s400,393.65,477.07,631.26c78,240.39,52.45,465.95-71.91,635.13C1728.4,1738.26,1524.84,1829.74,1277,1829.75ZM690.24,85.43c-232.44,0-422.47,84.65-535.91,239C-85.1,650.17,92.13,1188.61,549.39,1524.71s1024.07,344.5,1263.49,18.76,62.2-864.19-395.07-1200.29C1195.17,179.54,940.4,88,700.43,85.49,697,85.45,693.62,85.43,690.24,85.43Zm329.85,1060.66c-49.62,0-104.48-17.81-153.07-53.53-46.54-34.2-80.82-79.71-96.53-128.15-16.62-51.21-10.83-99.73,16.3-136.63,54.15-73.68,178.26-74.79,276.66-2.48s134.39,191.11,80.23,264.79h0C1116.27,1127.38,1070.93,1146.09,1020.09,1146.09ZM909.94,818.41c-35.72,0-66.66,12.37-85.05,37.38-17.86,24.3-21.21,57.69-9.42,94,12.68,39.1,40.94,76.26,79.55,104.65,77.39,56.88,171.84,60.29,210.55,7.62s7.26-141.79-70.13-198.67C994.81,833.54,949.45,818.41,909.94,818.41Zm214.69,257.68h0Z"/><path class="cls-1" d="M1304.69,856C1185.31,837.38,1257.23,620.7,1139,655.85s-136.56,16-233.47-94.37C811.25,454.1,761.63,581.4,759,588.33c-37.11,128,35.93,296.24,187.82,407.88,180.83,132.91,404.87,135.28,500.41,5.29C1486.53,891.74,1424.06,874.59,1304.69,856Z"/><path class="cls-5" d="M1442.13,300.25C1216.26,134.23,965,44.93,735.8,32.66l.11-.09c-591.76-78.14-728.16,387-617.81,365,18.41-3.66,34.19-4.45,47.8-3.31-1.38,6.5-2.77,13-4,19.74C106.56,723.15,439.56,781.8,313.35,980.09s34.54,297,163.08,211.6l.89-.59c57.26-37.39,135.35-14.71,164.62,47.09,14.48,30.59,26,67.4,24.66,105.85-4,117.42-25.78,214.6,133.86,211.15,47.08-1,67.91-57.43,55.71-103.25-27.59-103.62,107.57-128.27,160.06-59.07,12.5,16.49,21.57,33.85,25,50.34,5.46,49.62-2,106.68-23.56,160.52-52.57,131.51-124.63,416.65,87.74,439.76s16.09-461.57,177-456.35,177.85,85.24,327.59-24.47,228.55-183.12,292.29-149.74,64.45-219.2,64.45-219.2C1964.2,889.5,1773.9,544.1,1442.13,300.25Zm5.13,701.25c-95.54,130-319.58,127.61-500.42-5.3C795,884.56,721.92,716.35,759,588.33c2.6-6.93,52.22-134.23,146.52-26.85C1002.46,671.84,1020.8,691,1139,655.85S1185.32,837.38,1304.69,856,1486.53,891.74,1447.26,1001.5Z"/><g class="cls-3"><path class="cls-4" d="M493.17,625.51a39.12,39.12,0,0,0,38.48,32.72,39.32,39.32,0,0,0,6.47-.54,39.09,39.09,0,0,0,32.19-45L554.4,516.65a39.09,39.09,0,0,0-44.95-32.19h0a39.14,39.14,0,0,0-32.19,44.95Z"/><path class="cls-4" d="M954.18,442.57h.87a39.09,39.09,0,0,0,26.18-67.33l-70.36-67.35a39.11,39.11,0,0,0-55.28,1.21,39.15,39.15,0,0,0,1.21,55.28l70.36,67.35A38.84,38.84,0,0,0,954.18,442.57Z"/><path class="cls-4" d="M1425.67,810.6a38.88,38.88,0,0,0-1.79-29.87l-42.62-87.59A39.1,39.1,0,1,0,1311,727.35l42.62,87.59A38.79,38.79,0,0,0,1376,834.79a38.85,38.85,0,0,0,29.86-1.8A38.81,38.81,0,0,0,1425.67,810.6Z"/><path class="cls-4" d="M737.05,993.63A39.15,39.15,0,0,0,694.59,1029l-8.8,97a39.1,39.1,0,0,0,35.4,42.47c1.21.11,2.41.16,3.6.16a39.1,39.1,0,0,0,38.87-35.57l8.79-97a39.08,39.08,0,0,0-35.4-42.47Z"/><path class="cls-4" d="M516.09,853.65l-82.47,51.83a39.1,39.1,0,0,0,41.61,66.2l82.47-51.83a39.1,39.1,0,0,0-41.61-66.2Z"/><path class="cls-4" d="M1305.72,1393.25a39.15,39.15,0,0,0-53.91-12.3l-82.46,51.84A39.1,39.1,0,0,0,1211,1499l82.47-51.84a39.14,39.14,0,0,0,12.29-53.9Z"/><path class="cls-4" d="M1472.31,1132.24a39.09,39.09,0,1,0-72.75,28.65l35.69,90.63a39.09,39.09,0,1,0,72.75-28.65Z"/><path class="cls-4" d="M1179.56,493.12l93.58,27a39.09,39.09,0,1,0,21.7-75.11l-93.58-27a39.17,39.17,0,0,0-48.41,26.71h0A39.14,39.14,0,0,0,1179.56,493.12Z"/><path class="cls-4" d="M1647.1,921.85l-93.58-27a39.1,39.1,0,1,0-21.7,75.12l93.58,27a39.1,39.1,0,0,0,21.7-75.12Z"/><path class="cls-4" d="M1820.71,1283.18a39.1,39.1,0,0,0-55.25-2.16L1694,1347.15a39.1,39.1,0,0,0,25,67.77l1.56,0a38.83,38.83,0,0,0,26.51-10.39l71.51-66.13A39.15,39.15,0,0,0,1820.71,1283.18Z"/><path class="cls-4" d="M1512.73,749.15a38.8,38.8,0,0,0,23.36,7.81,39.55,39.55,0,0,0,5.62-.4l96.42-13.81a39.09,39.09,0,0,0-11.08-77.4l-96.42,13.81a39.1,39.1,0,0,0-17.9,70Z"/><path class="cls-4" d="M945.12,1153.31l-70,67.71a39.09,39.09,0,0,0,26.52,67.19h.67a38.8,38.8,0,0,0,27.16-11l70-67.71a39.09,39.09,0,0,0-54.36-56.2Z"/><path class="cls-4" d="M607.35,245.22a39.1,39.1,0,1,0-64.05,44.85l55.87,79.78A39.09,39.09,0,0,0,663.22,325Z"/></g><path class="cls-6" d="M475.68,157.66c-1.34,13.42-7.52,25.72-15.77,36.38C393,280.52,476.28,476.77,366.48,486.29c-110.75,9.6-103.09-239.79-29.86-320.83C429.09,63.11,481.84,96,475.68,157.66Z"/><path class="cls-6" d="M1713.45,993.84S1720,1135.32,1571,1213s136.66,126.37,220.18-26.21S1731.22,907.29,1713.45,993.84Z"/><g class="cls-7"><path class="cls-8" d="M1976.81,1188.72c-2.63-304.22-192.9-649.63-524.69-893.49a1487.18,1487.18,0,0,0-126.46-83.49q-11.81-7-23.68-13.65c0-1.09,0-2.17,0-3.26q-36-18.81-72.53-35.1a1353.06,1353.06,0,0,0-229.3-88.68C914,46.55,828.47,32.13,745.77,27.69l.13-.13c-187.34-24.73-329,5-431.73,56.48C404.79,61.11,514.35,53.22,645,70.47l-.13.07C748.34,76.05,856,96.47,964,131.75q10.8,3.51,21.61,7.23c-11.78,54.35,29.59,115.67,102.27,145,65.06,26.22,135.59,18.87,177.4-14.16q17.46,10.45,34.78,21.41,45.81,29,90.42,61.77c350.19,257.45,551.1,622,553.85,943.12,0,0-.19,52.87-6.3,108.41C1976.3,1367.91,1976.81,1188.72,1976.81,1188.72Z"/></g><path class="cls-4" d="M1119.61,2067.93a153,153,0,0,1-16.71-.94c-61-6.64-106-33.33-133.6-79.33-72.72-121,1.87-331.18,26.46-392.71,19.26-48.19,27.11-100.66,22.15-147.92-2.78-12-9.86-25.8-20.53-39.87-23-30.29-67.9-36.23-95.46-22.75-22.73,11.1-30.65,32.35-22.9,61.45,9.37,35.17,2.68,74.86-17,101.1-15.05,20-36.72,31.34-61,31.86-59.92,1.26-101.66-11.06-127.63-37.75-38-39.1-35-100.2-31.82-164.88.53-10.75,1.07-21.76,1.45-33,1-29.49-6.54-61.42-22.4-94.93a90.59,90.59,0,0,0-57.42-48.26,89,89,0,0,0-72.89,10.85l-.64.42c-71.89,47.73-157.23,46.47-207.65-3-54.71-53.66-50.44-143.73,11.43-240.93,53.34-83.81,14-134.5-45.5-211.22C187,677.65,111.42,580.25,137.19,418.5q-7,.83-14.47,2.3c-21.25,4.23-40-2.79-51.56-19.25C48.49,369.16,59.42,306.1,99,240.9,125.68,197,189,114.9,313.3,58.46,432.83,4.2,576.06-12.4,739,9.12l.45.06c241.88,13.49,496.29,110,716.68,272h0C1783,521.41,1987.68,871,1990.45,1193.53c0,2.29-.21,50.47-5.77,102.71-10.85,101.85-31.94,126.79-49.1,137.14-13.54,8.17-29.24,8.34-44.2.5-41-21.47-102.44,24.64-204.31,101-19.89,14.9-40.46,30.32-63,46.86-108.74,79.68-157.12,66.69-224.08,48.71-31.45-8.45-67.09-18-118.25-19.68-13.71-.43-20.15,4.34-23.81,8-25.26,25-23.29,106.55-21.55,178.45,2.35,97.41,4.79,198.15-46.49,245.28C1171.43,2059.4,1147.86,2067.93,1119.61,2067.93Zm-185.28-737.7c36.48,0,75.32,14.83,100.74,48.35,15.39,20.3,25.26,40.39,29.34,59.74a22.47,22.47,0,0,1,.37,2.3c6.07,55.16-2.84,116.2-25.1,171.88-44.35,110.94-78.77,269.38-29.85,350.81,19.9,33.11,52,51.65,98.18,56.67,21.91,2.37,38.21-1.65,49.84-12.33,35.48-32.62,33.21-126.49,31.21-209.32-2.16-89.36-4.2-173.76,35.52-213.17,15.27-15.14,35-22.44,58.65-21.65,56.62,1.83,96.75,12.6,129,21.27,60.24,16.17,93.42,25.08,183.86-41.18,22.37-16.39,42.83-31.73,62.62-46.56,116.38-87.25,186.79-140,254-105.39,15.86-15.31,30.2-107.27,30.48-198-2.64-307.66-200-642.8-515-874.35h0C1214.36,162.18,968,68.77,734.54,56.28a23.49,23.49,0,0,1-4.13-.59c-346-44.86-543.06,100.7-606.74,239.3-22.75,49.51-17.09,76.58-13.46,79.82,0-.1,1.13,0,3.28-.4,19.34-3.84,37.64-5.08,54.39-3.68A23.66,23.66,0,0,1,189,399.21l-.14.67c-1.29,6-2.57,12.06-3.69,18.33-26.19,146.23,40.89,232.7,100.07,309,61.32,79,119.24,153.7,48,265.59-49,77-55.8,144.92-18.22,181.78,33.78,33.13,96.13,32,148.27-2.57l1.08-.72A136.3,136.3,0,0,1,576,1154.53a137.89,137.89,0,0,1,87.32,73.54c19.12,40.39,28.18,79.68,26.92,116.77-.38,11.44-.94,22.69-1.48,33.68-2.79,56.47-5.19,105.22,18.49,129.57,16.32,16.77,46.66,24.43,92.71,23.45,9.89-.21,17.81-4.47,24.22-13,11.16-14.84,14.83-39.16,9.15-60.51-13.48-50.62,4.85-95.11,47.83-116.11C896.71,1334.32,915.2,1330.23,934.33,1330.23Zm298.41-209.59c-96.66,0-204.31-35.12-299.9-105.38C776.46,900.32,695.65,722.05,736.32,581.75c.17-.58.36-1.16.57-1.73,4.62-12.3,30.36-74.13,83.45-83.83,33.94-6.2,68.58,10.52,103,49.69,94.21,107.28,104.06,118.48,209,87.31,25.37-7.55,47.09-6.18,64.55,4.06,30.77,18.06,39.76,58.13,48.46,96.88,12.82,57.17,23.46,92.32,63,98.49,79.25,12.36,137.29,24.37,162.45,66.7,16.25,27.33,15.85,62.33-1.26,110.14a23.36,23.36,0,0,1-3.21,6C1414.79,1085.6,1329.25,1120.64,1232.74,1120.64ZM781.48,595.83c-34.63,121.5,39,278.15,179.37,381.32,168.71,124,376.44,129.53,465.3,13.09,10.77-31.29,12.07-53.15,4-66.76C1415.58,899,1363.06,889,1301,879.35c-74.24-11.57-90.23-82.84-101.9-134.87-6.48-28.9-13.19-58.78-26.24-66.44-5.7-3.34-14.83-3.18-27.14.48-133.94,39.82-160.21,9.89-258-101.44-15.59-17.74-38.49-38.15-58.95-34.37C805.16,547,787,581.75,781.48,595.83Zm665.78,405.67h0Z"/><path class="cls-1" d="M838.44,1347.93l.23.17v0Z"/><g class="cls-3"><path class="cls-4" d="M1456.79,927.11v0A.06.06,0,0,1,1456.79,927.11Z"/><path class="cls-4" d="M1325.68,859.37l-6.35-1Z"/><path class="cls-4" d="M1458,933.06l-.06-.32Z"/><path class="cls-4" d="M1345.32,862.83l-4.26-.78Z"/><path class="cls-4" d="M1335.68,861.08l-5-.86Z"/><path class="cls-4" d="M1315.39,857.68q-5.28-.84-10.7-1.69Q1310.12,856.83,1315.39,857.68Z"/><path class="cls-4" d="M1409.18,879.86l-1.48-.6Z"/><path class="cls-4" d="M887.46,543.23q-3.26-2.87-6.42-5.36Q884.21,540.36,887.46,543.23Z"/><path class="cls-4" d="M905.55,561.48c-2.64-3-5.22-5.76-7.79-8.4C900.33,555.72,902.92,558.48,905.55,561.48Z"/><path class="cls-4" d="M1458.62,953.06l.06-.72Z"/><path class="cls-4" d="M1458.69,939.36c0-.18,0-.35,0-.52C1458.66,939,1458.68,939.18,1458.69,939.36Z"/><path class="cls-4" d="M1415.32,882.53l-1.09-.51Z"/><path class="cls-4" d="M1380.34,870.5l-2.74-.71Z"/><path class="cls-4" d="M1388.16,872.65l-2.44-.69Z"/><path class="cls-4" d="M1402.6,877.33l-1.83-.66Z"/><path class="cls-4" d="M1395.59,874.93l-2.15-.69Z"/><path class="cls-4" d="M1363.57,866.5l-3.45-.73Z"/><path class="cls-4" d="M1426,888.13Z"/><path class="cls-4" d="M1421,885.31l-.62-.34Z"/><path class="cls-4" d="M1354.65,864.64l-3.89-.76Z"/><path class="cls-4" d="M1372.15,868.45l-3.09-.71Z"/><path class="cls-4" d="M879.88,536.94c-2.27-1.74-4.5-3.32-6.7-4.78C875.38,533.63,877.61,535.2,879.88,536.94Z"/><path class="cls-4" d="M1456.58,968.24l.12-.64Z"/><path class="cls-4" d="M1458.9,945.38c0,.21,0,.43,0,.64C1458.91,945.81,1458.9,945.59,1458.9,945.38Z"/><path class="cls-4" d="M888.87,544.46q3.58,3.25,7.28,7C893.69,549,891.26,546.62,888.87,544.46Z"/><path class="cls-4" d="M848.75,520.67q-2.06-.54-4-.93Q846.7,520.13,848.75,520.67Z"/><path class="cls-4" d="M841.84,519.25c-1.3-.19-2.59-.34-3.86-.43C839.25,518.91,840.54,519.06,841.84,519.25Z"/><path class="cls-4" d="M835.5,518.68c-1.49,0-3,0-4.43,0C832.53,518.64,834,518.64,835.5,518.68Z"/><path class="cls-4" d="M1454.83,976.37c0-.16.07-.31.11-.46C1454.9,976.06,1454.86,976.21,1454.83,976.37Z"/><path class="cls-4" d="M871.33,531c-2.15-1.36-4.27-2.65-6.35-3.76C867.06,528.31,869.18,529.58,871.33,531Z"/><path class="cls-4" d="M863.56,526.48c-1.72-.89-3.41-1.68-5.08-2.4C860.15,524.8,861.84,525.59,863.56,526.48Z"/><path class="cls-4" d="M856.49,523.23q-2.79-1.11-5.51-1.94C852.79,521.85,854.63,522.49,856.49,523.23Z"/><path class="cls-4" d="M1457.85,960.47l.09-.72Z"/><path class="cls-4" d="M740.64,1266.72c1.31-38.44-10.18-75.26-24.66-105.84-29.27-61.8-107.36-84.49-164.61-47.09l-.9.59c-128.53,85.35-289.29-13.31-163.08-211.6S180.61,645.83,236,336.73c1.21-6.75,2.6-13.25,4-19.75-13.61-1.14-29.39-.35-47.79,3.31-49.48,9.84-49.3-78.26,19.26-171.4C72.77,262.38,54.78,410.2,118.11,397.61c18.4-3.66,34.18-4.46,47.79-3.31-1.38,6.5-2.77,13-4,19.74C106.56,723.14,439.56,781.8,313.35,980.09S347.9,1277,476.43,1191.69l.9-.59c57.25-37.39,135.34-14.71,164.61,47.09,14.48,30.59,26,67.4,24.66,105.85-4,117.42-25.78,214.59,133.86,211.14,38.42-.83,59.34-38.55,59.11-77.3C716.27,1475,736.79,1380.35,740.64,1266.72Z"/><path class="cls-4" d="M835.5,518.68c.82,0,1.65.08,2.48.14,1.27.09,2.56.24,3.86.43.94.13,1.9.3,2.86.49q2,.39,4,.93c.74.2,1.48.39,2.23.62q2.71.83,5.51,1.94c.66.26,1.32.56,2,.85,1.67.72,3.36,1.51,5.08,2.4.47.24.94.45,1.42.71,2.08,1.11,4.2,2.4,6.35,3.76.61.39,1.23.79,1.85,1.21,2.2,1.46,4.43,3,6.7,4.78.39.3.78.63,1.16.93q3.16,2.49,6.42,5.36l1.41,1.23c2.39,2.16,4.82,4.5,7.28,7,.54.54,1.07,1.1,1.61,1.65,2.57,2.64,5.15,5.4,7.79,8.4C1002.46,671.84,1020.81,691,1139,655.85S1185.31,837.38,1304.69,856q5.43.84,10.7,1.69l3.94.64,6.35,1,5,.85,5,.86,5.38,1,4.26.78c1.84.34,3.64.7,5.44,1l3.89.76c1.85.37,3.66.75,5.47,1.13l3.45.73c1.86.41,3.68.82,5.49,1.24l3.09.71c1.84.44,3.65.89,5.45,1.34l2.74.71q2.73.71,5.38,1.46l2.44.69q2.68.78,5.28,1.59l2.15.69c1.76.56,3.49,1.15,5.18,1.74l1.83.66q2.61.95,5.1,1.93l1.48.6c1.72.7,3.41,1.42,5,2.16l1.09.51c1.71.79,3.4,1.6,5,2.44l.62.34c1.74.91,3.44,1.85,5.07,2.82h0c16,9.53,26.49,21.94,30.75,38.94v0c.46,1.82.83,3.7,1.14,5.63l.06.32q.43,2.81.66,5.78c0,.17,0,.34,0,.52q.21,2.92.21,6c0,.21,0,.43,0,.64q0,3.08-.23,6.32l-.06.72q-.22,3.26-.68,6.69l-.09.72c-.31,2.32-.69,4.69-1.15,7.13l-.12.64c-.48,2.5-1,5-1.64,7.67,0,.15-.08.3-.11.46q-1,4.05-2.19,8.32v0a217.89,217.89,0,0,0,68.66-60.53c39.27-109.75-23.2-126.9-142.57-145.51s-47.46-235.28-165.67-200.13-136.55,16-233.46-94.37C885.29,376.78,835.68,504.09,833.07,511c-.73,2.54-1.35,5.13-2,7.7h0C832.53,518.64,834,518.64,835.5,518.68Z"/><path class="cls-4" d="M1458.68,952.34q.21-3.24.23-6.32C1458.9,948.08,1458.82,950.18,1458.68,952.34Z"/><path class="cls-4" d="M1458.65,938.84q-.23-3-.66-5.78Q1458.43,935.87,1458.65,938.84Z"/><path class="cls-4" d="M1457.94,959.75q.45-3.43.68-6.69Q1458.4,956.32,1457.94,959.75Z"/><path class="cls-4" d="M1457.93,932.74c-.31-1.93-.68-3.81-1.14-5.63C1457.25,928.93,1457.62,930.81,1457.93,932.74Z"/><path class="cls-4" d="M1414.23,882c-1.64-.74-3.33-1.46-5-2.16C1410.9,880.57,1412.59,881.28,1414.23,882Z"/><path class="cls-4" d="M1426,888.13c-1.63-1-3.33-1.91-5.07-2.82C1422.7,886.22,1424.4,887.16,1426,888.13Z"/><path class="cls-4" d="M1420.34,885c-1.62-.84-3.31-1.65-5-2.44C1417,883.32,1418.72,884.13,1420.34,885Z"/><path class="cls-4" d="M1452.64,984.69q1.21-4.28,2.19-8.32C1454.18,979.08,1453.45,981.84,1452.64,984.69Z"/><path class="cls-4" d="M1456.7,967.6c.46-2.44.84-4.81,1.15-7.13C1457.54,962.79,1457.16,965.16,1456.7,967.6Z"/><path class="cls-4" d="M1454.94,975.91c.62-2.62,1.16-5.17,1.64-7.67C1456.1,970.74,1455.56,973.29,1454.94,975.91Z"/><path class="cls-4" d="M858.48,524.08c-.67-.29-1.33-.59-2-.85C857.15,523.49,857.82,523.79,858.48,524.08Z"/><path class="cls-4" d="M844.7,519.74c-1-.19-1.92-.36-2.86-.49C842.78,519.38,843.74,519.55,844.7,519.74Z"/><path class="cls-4" d="M851,521.29c-.75-.23-1.49-.42-2.23-.62C849.49,520.87,850.23,521.06,851,521.29Z"/><path class="cls-4" d="M873.18,532.16c-.62-.42-1.24-.82-1.85-1.21C871.94,531.34,872.56,531.74,873.18,532.16Z"/><path class="cls-4" d="M865,527.19c-.48-.26-1-.47-1.42-.71C864,526.72,864.5,526.93,865,527.19Z"/><path class="cls-4" d="M1407.7,879.26q-2.49-1-5.1-1.93Q1405.21,878.28,1407.7,879.26Z"/><polygon class="cls-4" points="831.07 518.72 831.07 518.72 831.07 518.72 831.07 518.72"/><path class="cls-4" d="M881,537.87c-.38-.3-.77-.63-1.16-.93Z"/><path class="cls-4" d="M1426,888.13c16,9.54,26.5,21.93,30.75,38.94C1452.52,910.07,1442,897.66,1426,888.13Z"/><path class="cls-4" d="M896.15,551.43c.54.54,1.07,1.1,1.61,1.65C897.22,552.53,896.69,552,896.15,551.43Z"/><path class="cls-4" d="M838,518.82c-.83-.06-1.66-.12-2.48-.14C836.32,518.7,837.15,518.76,838,518.82Z"/><path class="cls-4" d="M1458.69,939.36q.21,2.92.21,6Q1458.9,942.29,1458.69,939.36Z"/><path class="cls-4" d="M1369.06,867.74c-1.81-.42-3.63-.83-5.49-1.24C1365.43,866.91,1367.25,867.32,1369.06,867.74Z"/><path class="cls-4" d="M1377.6,869.79c-1.8-.45-3.61-.9-5.45-1.34C1374,868.89,1375.8,869.34,1377.6,869.79Z"/><path class="cls-4" d="M888.87,544.46l-1.41-1.23Z"/><path class="cls-4" d="M1393.44,874.24q-2.6-.81-5.28-1.59Q1390.85,873.43,1393.44,874.24Z"/><path class="cls-4" d="M1400.77,876.67c-1.69-.59-3.42-1.18-5.18-1.74C1397.35,875.5,1399.08,876.07,1400.77,876.67Z"/><path class="cls-4" d="M1385.72,872q-2.65-.75-5.38-1.46Q1383.07,871.21,1385.72,872Z"/><path class="cls-4" d="M1360.12,865.77c-1.81-.38-3.62-.76-5.47-1.13C1356.5,865,1358.31,865.39,1360.12,865.77Z"/><path class="cls-4" d="M1330.69,860.22l-5-.85Z"/><path class="cls-4" d="M1319.33,858.32l-3.94-.64Z"/><path class="cls-4" d="M1341.06,862.05l-5.38-1Z"/><path class="cls-4" d="M1350.76,863.88c-1.8-.35-3.6-.71-5.44-1C1347.16,863.17,1349,863.53,1350.76,863.88Z"/><path class="cls-4" d="M1684.1,1485.35c-144.45,105.85-142.55,36-311.14,25.31l0,0-3.25-.19c-317.41-20.61-219.32,225.83-216,386.16,3.31,160.89-140.65,108.09-140.65,108.09s74.58,60.66,152.52,26.87,47-240,61.92-354.7S1290,1587.5,1290,1587.5c153.84,7.43,172.71,83.12,320-24.83,149.74-109.71,228.55-183.13,292.29-149.74,29.53,15.47,45.52-30.44,54.19-84.18C1896,1317.48,1818.71,1386.73,1684.1,1485.35Z"/></g><path class="cls-9" d="M521.16,469.83a28.58,28.58,0,0,0-23.53,32.87l15.91,96.09a28.58,28.58,0,1,0,56.4-9.33L554,493.36A28.58,28.58,0,0,0,521.16,469.83Z"/><path class="cls-4" d="M541.72,633.22a39.17,39.17,0,0,1-38.55-32.71l-15.91-96.1a39.09,39.09,0,0,1,77.14-12.77l15.91,96.1a39.13,39.13,0,0,1-38.59,45.48ZM525.84,480a18.75,18.75,0,0,0-3,.24A18.08,18.08,0,0,0,508,501l15.91,96.09a18.07,18.07,0,1,0,35.66-5.91l-15.9-96.1A18.12,18.12,0,0,0,525.84,480Z"/><path class="cls-9" d="M873.18,291.36a28.59,28.59,0,0,0,.89,40.42l70.36,67.35A28.58,28.58,0,1,0,984,357.83L913.6,290.48A28.59,28.59,0,0,0,873.18,291.36Z"/><path class="cls-4" d="M964.19,417.55a38.92,38.92,0,0,1-27-10.83L866.8,339.37a39.14,39.14,0,0,1-1.21-55.27h0A38.83,38.83,0,0,1,893,272a39.54,39.54,0,0,1,27.89,10.85l70.36,67.34a39.08,39.08,0,0,1-27,67.32ZM880.78,298.63a18.09,18.09,0,0,0,.56,25.55l70.36,67.36a18.07,18.07,0,1,0,25-26.12l-70.36-67.35a18.07,18.07,0,0,0-25.55.56Z"/><path class="cls-9" d="M1343.6,659.54a28.6,28.6,0,0,0-13.2,38.21L1373,785.34a28.59,28.59,0,0,0,51.41-25l-42.62-87.59A28.59,28.59,0,0,0,1343.6,659.54Z"/><path class="cls-4" d="M1398.79,811.92a39.14,39.14,0,0,1-35.22-22L1321,702.35a39.09,39.09,0,0,1,70.31-34.2l42.62,87.58a39.08,39.08,0,0,1-35.09,56.19ZM1356.1,667.16a18.14,18.14,0,0,0-7.9,1.83h0a18.06,18.06,0,0,0-8.35,24.15l42.62,87.59A18.08,18.08,0,1,0,1415,764.92l-42.62-87.58a18.12,18.12,0,0,0-16.26-10.18Zm-12.5-7.61h0Z"/><path class="cls-9" d="M746.1,979.1A28.58,28.58,0,0,0,715.05,1005l-8.8,97a28.59,28.59,0,0,0,56.94,5.16l8.8-97A28.6,28.6,0,0,0,746.1,979.1Z"/><path class="cls-4" d="M734.75,1143.67c-1.18,0-2.36-.05-3.56-.16a39.08,39.08,0,0,1-35.4-42.47l8.79-97a39.09,39.09,0,1,1,77.87,7.06l-8.79,97A39.15,39.15,0,0,1,734.75,1143.67Zm8.74-154.18a18.08,18.08,0,0,0-18,16.44l-8.8,97a18.07,18.07,0,0,0,36,3.27l8.8-97a18.08,18.08,0,0,0-16.37-19.63C744.59,989.52,744,989.49,743.49,989.49Z"/><path class="cls-10" d="M571.09,846.53a28.59,28.59,0,0,0-39.41-9l-82.46,51.84a28.58,28.58,0,0,0,30.42,48.4L562.1,886A28.58,28.58,0,0,0,571.09,846.53Z"/><path class="cls-4" d="M464.49,952.67a39.09,39.09,0,0,1-20.86-72.19l82.46-51.83A39.14,39.14,0,0,1,580,840.94h0a39.14,39.14,0,0,1-12.29,53.9l-82.47,51.84A38.86,38.86,0,0,1,464.49,952.67Zm82.37-109a18,18,0,0,0-9.59,2.76l-82.46,51.84a18.08,18.08,0,0,0,19.24,30.61l82.46-51.84a18.11,18.11,0,0,0,5.69-24.93h0A18.09,18.09,0,0,0,546.86,843.68Z"/><path class="cls-9" d="M1306.82,1373.84a28.59,28.59,0,0,0-39.41-9l-82.47,51.84a28.59,28.59,0,1,0,30.43,48.4l82.46-51.83A28.59,28.59,0,0,0,1306.82,1373.84Z"/><path class="cls-4" d="M1200.23,1480a39.1,39.1,0,0,1-20.88-72.2l82.46-51.83a39.09,39.09,0,1,1,41.61,66.19L1221,1474A38.82,38.82,0,0,1,1200.23,1480Zm82.35-109a18,18,0,0,0-9.58,2.78l-82.46,51.84a18.07,18.07,0,1,0,19.23,30.6l82.47-51.83a18.09,18.09,0,0,0-9.66-33.39Z"/><path class="cls-10" d="M1435.46,1095a28.58,28.58,0,0,0-16.12,37.07l35.69,90.63a28.58,28.58,0,0,0,53.19-21l-35.69-90.63A28.58,28.58,0,0,0,1435.46,1095Z"/><path class="cls-4" d="M1481.67,1251.29a39.16,39.16,0,0,1-36.42-24.77l-35.69-90.63a39.15,39.15,0,0,1,22-50.7h0a39.1,39.1,0,0,1,50.71,22l35.69,90.63a39.1,39.1,0,0,1-36.33,53.42Zm-42.36-146.54a18.09,18.09,0,0,0-10.2,23.44l35.7,90.63a18.07,18.07,0,1,0,33.63-13.25L1462.75,1115a18.07,18.07,0,0,0-23.44-10.2Z"/><path class="cls-10" d="M1173,422.63a28.59,28.59,0,0,0,19.53,35.4l93.57,27a28.59,28.59,0,0,0,15.87-54.93l-93.57-27A28.59,28.59,0,0,0,1173,422.63Z"/><path class="cls-4" d="M1294,496.69a39.07,39.07,0,0,1-10.83-1.53l-93.58-27a39.14,39.14,0,0,1-26.71-48.4h0A39.18,39.18,0,0,1,1211.26,393l93.58,27A39.09,39.09,0,0,1,1294,496.69Zm-110.92-71.14a18.09,18.09,0,0,0,12.35,22.38L1289,475a18.08,18.08,0,0,0,10-34.73l-93.58-27a18.08,18.08,0,0,0-22.38,12.35Z"/><path class="cls-9" d="M1525.21,899.44a28.59,28.59,0,0,0,19.53,35.4l93.57,27A28.58,28.58,0,1,0,1654.18,907l-93.57-27A28.59,28.59,0,0,0,1525.21,899.44Z"/><path class="cls-4" d="M1646.23,973.51A39.08,39.08,0,0,1,1635.4,972l-93.58-27a39.15,39.15,0,0,1-26.71-48.41h0a39.18,39.18,0,0,1,48.41-26.72l93.58,27a39.1,39.1,0,0,1-10.87,76.66Zm-110.92-71.15a18.09,18.09,0,0,0,12.35,22.38l93.57,27a18.07,18.07,0,0,0,10-34.73l-93.57-27a18.1,18.1,0,0,0-22.38,12.35Z"/><path class="cls-11" d="M1709.51,1370.26a28.57,28.57,0,0,0,40.39,1.58l71.51-66.13a28.58,28.58,0,1,0-38.81-42l-71.51,66.13A28.58,28.58,0,0,0,1709.51,1370.26Z"/><path class="cls-4" d="M1730.51,1389.93a39.08,39.08,0,0,1-26.56-67.78l71.51-66.12a39.09,39.09,0,0,1,55.25,2.15,39.16,39.16,0,0,1-2.16,55.25L1757,1379.56A39,39,0,0,1,1730.51,1389.93ZM1802,1266.65a18,18,0,0,0-12.26,4.8l-71.51,66.13a18.08,18.08,0,1,0,24.55,26.55l71.51-66.13a18.08,18.08,0,0,0-11.57-31.34Z"/><path class="cls-11" d="M1517.88,696.92a28.58,28.58,0,0,0,32.35,24.24l96.41-13.81a28.59,28.59,0,1,0-8.1-56.6l-96.42,13.82A28.57,28.57,0,0,0,1517.88,696.92Z"/><path class="cls-4" d="M1546.09,732a39.1,39.1,0,0,1-5.46-77.8l96.42-13.81a39.1,39.1,0,0,1,11.09,77.4l-96.42,13.81A39.69,39.69,0,0,1,1546.09,732Zm96.54-71a17.59,17.59,0,0,0-2.6.19L1543.61,675a18.08,18.08,0,0,0-15.33,20.45h0a18.05,18.05,0,0,0,20.45,15.33l96.43-13.81a18.08,18.08,0,0,0-2.53-36Z"/><path class="cls-11" d="M891.74,1244a28.59,28.59,0,0,0,40.42.68l70-67.71a28.59,28.59,0,0,0-39.74-41.1l-70,67.71A28.58,28.58,0,0,0,891.74,1244Z"/><path class="cls-4" d="M912.3,1263.22h-.67a38.81,38.81,0,0,1-27.45-11.91h0a39.14,39.14,0,0,1,.93-55.28l70-67.71a38,38,0,0,1,27.83-11,39.1,39.1,0,0,1,26.53,67.19l-70,67.71A38.8,38.8,0,0,1,912.3,1263.22Zm-13-26.53a18.1,18.1,0,0,0,25.56.42l70-67.71a18.08,18.08,0,0,0-12.27-31.07,17.32,17.32,0,0,0-12.86,5.08l-70,67.72a18.09,18.09,0,0,0-.43,25.56Z"/><path class="cls-11" d="M657.59,345.85a28.58,28.58,0,0,0,7-39.82l-55.87-79.78A28.58,28.58,0,0,0,561.91,259l55.87,79.79A28.59,28.59,0,0,0,657.59,345.85Z"/><path class="cls-4" d="M641.28,361.53a39.19,39.19,0,0,1-32.11-16.67l-55.86-79.8a39.09,39.09,0,0,1,64-44.85L673.22,300a39.1,39.1,0,0,1-31.94,61.52Zm-56-137A18.08,18.08,0,0,0,570.52,253l55.87,79.79a18.08,18.08,0,0,0,25.17,4.44h0A18.06,18.06,0,0,0,656,312.07l-55.86-79.8a18.15,18.15,0,0,0-14.85-7.71Z"/></svg>