<svg id="Capa_1" data-name="Capa 1" xmlns="http://www.w3.org/2000/svg" viewBox="0 0 182.17 100.1"><defs><style>.cls-1{font-size:100px;fill:#141414;font-family:CuteFont-Regular, Cute Font;}.cls-2{fill:#f4e101;}</style></defs><text class="cls-1" transform="translate(48.57 71)">hype</text><path class="cls-2" d="M20.13,56.77a.65.65,0,0,0-.64.65v7.79a.65.65,0,0,0,.64.65h6.5a.65.65,0,1,0,0-1.3H20.78V57.42A.65.65,0,0,0,20.13,56.77Z"/><path class="cls-2" d="M13,61.32v-7.8a.65.65,0,0,0-.65-.65H4.55a.65.65,0,1,0,0,1.3h7.14v6.5H4.55a.65.65,0,0,0-.65.65v7.79a.65.65,0,0,0,1.3,0V62H7.79V73.66H2.6a1.3,1.3,0,0,1-1.3-1.3V58.07H8.44a.65.65,0,1,0,0-1.3H1.3v-6.5H8.44a.65.65,0,1,0,0-1.29H5.2V44.43a.65.65,0,0,0-1.3,0V49H1.3V38.58a1.3,1.3,0,0,1,1.3-1.3H3.9v3.25a.65.65,0,0,0,.65.65H7.79v4.55a.65.65,0,1,0,1.3,0v-5.2a.65.65,0,0,0-.65-.65H5.2v-2.6H23.38V49H13v-7.8h6.5v3.9h-2.6v-.65a.65.65,0,1,0-1.3,0v1.3a.65.65,0,0,0,.65.65h3.89a.65.65,0,0,0,.65-.65v-5.2a.65.65,0,0,0-.65-.65H12.34a.65.65,0,0,0-.65.65v9.1a.65.65,0,0,0,.65.64H30.53a.65.65,0,1,0,0-1.29H24.68V36.63A.65.65,0,0,0,24,36H2.6A2.6,2.6,0,0,0,0,38.58V72.36A2.61,2.61,0,0,0,2.6,75H8.44a.65.65,0,0,0,.65-.65V62h3.25A.66.66,0,0,0,13,61.32Z"/><path class="cls-2" d="M27.93,46.38a.65.65,0,0,0,.65-.65v-5.2a.65.65,0,1,0-1.3,0v5.2A.65.65,0,0,0,27.93,46.38Z"/><path class="cls-2" d="M34.42,62a.66.66,0,0,0,.65-.65v-7.8a.65.65,0,0,0-.65-.65H20.13a.65.65,0,0,0,0,1.3H33.77v7.15A.66.66,0,0,0,34.42,62Z"/><path class="cls-2" d="M16.89,53.52a.65.65,0,1,0-1.3,0v7.8a.65.65,0,1,0,1.3,0Z"/><path class="cls-2" d="M36.37,36H27.93a.65.65,0,1,0,0,1.29h8.44a1.3,1.3,0,0,1,1.3,1.3v6.5H32.48v-3.9h1.94a.65.65,0,0,0,0-1.3H31.83a.65.65,0,0,0-.65.65v5.2a.65.65,0,0,0,.65.65h1.94v3.25a.65.65,0,0,0,.65.64.65.65,0,0,0,.65-.64V46.38h2.6V64.56H34.42a.65.65,0,0,0,0,1.3h3.25v2.6H31.18v-11a.65.65,0,0,0-.65-.65H24a.65.65,0,0,0-.65.65v3.9A.66.66,0,0,0,24,62h2.6a.65.65,0,1,0,0-1.3H24.68v-2.6h5.2v11a.65.65,0,0,0,.65.65h7.14v2.6a1.3,1.3,0,0,1-1.3,1.3H13v-3.9H26.63a.65.65,0,0,0,0-1.3H12.34a.65.65,0,0,0-.65.65v5.2a.65.65,0,0,0,.65.65h24a2.6,2.6,0,0,0,2.6-2.6V38.58A2.59,2.59,0,0,0,36.37,36Z"/><path class="cls-2" d="M16.24,64.56h-3.9a.65.65,0,0,0,0,1.3h3.9a.65.65,0,1,0,0-1.3Z"/></svg>