<svg xmlns="http://www.w3.org/2000/svg" viewBox="0 0 223.95 426.43"><defs><style>.cls-1{isolation:isolate;}.cls-2{fill:#a53829;}.cls-3{fill:#632e22;}.cls-4{fill:#ffbd66;}.cls-5{fill:#ff9a55;}.cls-6{fill:#ffcd9c;}.cls-7{fill:#ffae85;}.cls-8{fill:#7ea9bc;}.cls-9{fill:#669bad;}.cls-10{fill:#548491;}.cls-11{fill:#9b5f48;}.cls-12{fill:#9e4638;}.cls-13{fill:#843229;}.cls-14{fill:#e05038;}.cls-15{fill:#f2e9a7;}.cls-16{fill:#c93b28;}.cls-17{fill:#844634;}.cls-18{fill:#774030;}.cls-19{fill:#fc8d42;}.cls-20{fill:#d15443;mix-blend-mode:multiply;opacity:0.5;}.cls-21{fill:#ef8f6f;}.cls-22{fill:#5b3d3b;}.cls-23{fill:#cea36a;}.cls-24{fill:#442a24;}.cls-25{fill:#fffdf3;}.cls-26{fill:#492f2c;}</style></defs><g class="cls-1"><g id="_1" data-name="1"><polygon class="cls-2" points="89.39 71.74 91.56 75.87 93.22 72.66 89.39 71.74"/><polygon class="cls-3" points="127.27 197.25 108.87 184.53 44.74 215.99 53.51 220.12 83.08 217.88 129.16 203.96 127.27 197.25"/><path class="cls-4" d="M155.46,172.15c-.79-1.85-7-19.71-9.8-30.09-5.87-22-13.55-45-27.45-57.33-4.1-3.64-21.46,31.3-8.54,58.93s24.48,42.5,31.41,47C157.87,201.55,157.93,177.87,155.46,172.15Z"/><path class="cls-5" d="M148.05,182.8c-6.69-4.85-17.47-20.28-29-48.54-6.71-16.49-3-34.92,2-46.66-1-1-1.92-2-2.93-2.87-4.1-3.64-21.46,31.3-8.54,58.93s24.48,42.5,31.41,47c9.23,6,13.4,1.52,14.87-4.66C153.84,186,151.23,185.1,148.05,182.8Z"/><path class="cls-6" d="M143.62,171c-6.45,1.34-6.34,13.86-.75,19.37s34.62,18.85,50.6,26.17l1.62-1.72C164,188.22,167.16,166.13,143.62,171Z"/><path class="cls-7" d="M156.23,195.84c-5.56-5.55-4-19.14,2.47-20.43.91-.18,1.77-.31,2.6-.41-4.35-4.05-9.33-5.73-17.68-4-6.45,1.34-7.91,14.94-2.31,20.45s36.18,17.77,52.16,25.09l1.23-1.3C179,208.26,160.44,200.05,156.23,195.84Z"/><path class="cls-8" d="M45.26,425.4h4.12s44-92.84,46.77-101.78,2.13-66.37,2.13-66.37l7.15-.26,38,63.09s11.19,56.5,35.26,104.64h3.78l-16-114.53L115.4,199.83l-60.52,8.94L69.67,320.18S49.38,380,45.26,425.4Z"/><path class="cls-9" d="M69.61,319.69l.06.49S49.38,380,45.26,425.4h4.12s44-92.84,46.77-101.78a14.71,14.71,0,0,0,.34-1.46A205.66,205.66,0,0,1,69.61,319.69Z"/><path class="cls-9" d="M142.4,318.38l1,1.7s11.19,56.5,35.26,104.64h3.78L166.68,311.78A175.48,175.48,0,0,1,142.4,318.38Z"/><polygon class="cls-10" points="67.61 236.79 125.03 220.29 121.94 213.24 66.4 224.93 67.61 236.79"/><path class="cls-10" d="M48.67,425.4c6.11-46.79,27.92-106.28,27.92-106.28l-10.27-112-11.44,1.69L69.67,320.18S49.38,380,45.26,425.4Z"/><path class="cls-10" d="M150.2,323.63l-39.27-69.81s-6.86.45-7,3.45l39.44,62.81s9.32,47,29.24,91.85C156.85,367.06,150.2,323.63,150.2,323.63Z"/><path class="cls-4" d="M51.1,230.09s43.77-2.15,73.93-12.61c0,0-3.87-27.59-2.74-40.35,3-34.56,3.06-84.18-4.48-91.46-10.31-10-35.07-16.51-47.8,2.75S48,205.67,51.1,230.09Z"/><path class="cls-5" d="M85.83,214.27c4.82-8.25,32-110.72,2.41-130a30.24,30.24,0,0,0-20,7.38C57.39,114.78,49.51,192.78,50.61,223.26,61.08,222.57,82.24,220.44,85.83,214.27Z"/><path class="cls-5" d="M109,78.56c9.28,6.88,3.66,91.87,2.63,107-.91,13.4,8.41,23,12.71,26.47-1.06-8.7-2.86-25.67-2-34.9,1.89-21.35,2.52-57.94,1-77.25C117.8,78.81,109,78.56,109,78.56Z"/><path class="cls-11" d="M129.16,204c-3.1-2.07-15.13-12.38-14.1-27.51s4.81-89.41-4.47-96.29c0,0,21.12-1.91,19.33,57.77C128.88,172.32,129.16,204,129.16,204Z"/><path class="cls-12" d="M134.49,9.5c-5,0-6.71,5.33-6.71,5.33s-.17-6-3.26-9.28C122.23,3.14,110.76-1,106.46.22s-29.9,12.69-22,40.06c2.58,8.94,6.36,22.52,17,30.94l31-13.41C136,45.26,143.87,9.5,134.49,9.5Z"/><path class="cls-13" d="M108.09,19.84A70.89,70.89,0,0,1,106.67.18l-.21,0c-4.29,1.2-29.9,12.69-22,40.06,2.58,8.94,6.36,22.52,17,30.94l31-13.41c.18-.62.37-1.32.57-2.05C122.48,53.22,112.08,38.79,108.09,19.84Z"/><polygon class="cls-6" points="90.47 76.55 97.87 50.42 115.75 62.11 111.97 82.69 107.27 89.33 90.47 76.55"/><polygon class="cls-14" points="112.6 79.36 107.11 88.8 108.39 92.45 113.63 80.34 112.6 79.36"/><polygon class="cls-14" points="108.39 92.45 87.67 76.61 89.39 71.74 107.11 88.8 108.39 92.45"/><path class="cls-15" d="M176.17,426.43h24.68s-16.82-8.94-21.66-6.85S176.17,426.43,176.17,426.43Z"/><path class="cls-15" d="M60.85,426.43H39.75s5.31-9.58,9.09-7.34S60.85,426.43,60.85,426.43Z"/><polygon class="cls-10" points="87.32 254.04 98.67 257.83 107.15 258.17 120.79 249.57 103.6 254.62 87.32 254.04"/><polygon class="cls-5" points="133.8 170.6 151.51 161.32 154.52 165.87 138.1 179.2 133.8 170.6"/><path class="cls-14" d="M139.64,192.58c-1.87-.05-8.48-4-7.71-9.08.35-2.32,17.72-21.87,22-20.2s4.62,7.17,3.34,9.13c-.79,1.2-5.79,8.44-8.44,11.39C145.82,187.18,141.32,192.63,139.64,192.58Z"/><path class="cls-16" d="M152.52,175.46C145.89,183,138,185.92,135,182a5.47,5.47,0,0,1-.89-1.81,12.44,12.44,0,0,0-2.17,3.34c-.77,5.13,5.84,9,7.71,9.08,1.68,0,6.18-5.4,9.2-8.76,2.65-2.95,7.65-10.19,8.44-11.39a6.46,6.46,0,0,0,.43-4.64A36.53,36.53,0,0,1,152.52,175.46Z"/><path class="cls-11" d="M44.74,216s36.28-1,41.09-9.28,31.52-111.36,2-130.62c0,0-19.88-.45-27.39,19.89C47.58,130.66,42.36,198,44.74,216Z"/><path class="cls-17" d="M44.74,216a177.11,177.11,0,0,0,20.48-1.79c7.25-20.41,30.24-112.89,7.49-132.56C41.13,103.37,43.38,205.77,44.74,216Z"/><path class="cls-18" d="M80.6,127.5c2.28-21.82-2-40.14-9.55-40.93s-15.53,16.25-17.81,38.07,2,40.14,9.55,40.93S78.32,149.32,80.6,127.5Z"/><path class="cls-19" d="M80.46,127c2.18-20.87-1.91-38.4-9.13-39.16s-14.86,15.55-17,36.42,1.91,38.41,9.14,39.16S78.28,147.85,80.46,127Z"/><path class="cls-4" d="M19.47,172.66C28.06,140.34,45.31,97,71.05,81.54c5.15-3.1,18.91,31.64.34,57.43s-33,38.51-33,38.51Z"/><path class="cls-19" d="M29.16,142.63a297.19,297.19,0,0,0-9.69,30l18.91,4.82S54.2,165.1,72.77,139.31c4.67-6.5,5.92-13.91,7.15-20.79C48.3,178.39,23.55,163.19,29.16,142.63Z"/><path class="cls-6" d="M38.93,165.2c-2.88-7.11-19.5,1-23.22,8.75S11,216,9,235.83l2.33,1.29C27.94,194.87,50.31,193.32,38.93,165.2Z"/><path class="cls-7" d="M19.81,181.26c3.47-6.3,16.48-5.4,22.16-.74.32-4.3-.55-9.18-3-15.32-2.88-7.11-19.5,1-23.22,8.75S11,216,9,235.83l1.16.64C13,216,16.26,187.7,19.81,181.26Z"/><path class="cls-14" d="M19.12,168.88c-.75-1.79-.51-9.8,3.78-11.35,2-.7,24.42,7.05,24.94,11.87s-3.62,7.56-5.68,7.22a113.16,113.16,0,0,1-12.38-2.93C25.91,172.33,19.79,170.49,19.12,168.88Z"/><path class="cls-16" d="M37.81,173.46c-8.63-2.92-14.2-9.06-12.43-13.71a5.09,5.09,0,0,1,1-1.65,9.63,9.63,0,0,0-3.51-.57c-4.29,1.55-4.53,9.56-3.78,11.35.67,1.61,6.79,3.45,10.66,4.81a113.16,113.16,0,0,0,12.38,2.93A4.88,4.88,0,0,0,45.94,175,28.39,28.39,0,0,1,37.81,173.46Z"/><path class="cls-5" d="M89.44,183.07c0-.34-1-.61-2.32-.61s-2.32.27-2.32.61,1,.6,2.32.6S89.44,183.4,89.44,183.07Z"/><path class="cls-5" d="M92.45,168.19c0-.33-1-.6-2.32-.6s-2.32.27-2.32.6,1,.61,2.32.61S92.45,168.53,92.45,168.19Z"/><path class="cls-5" d="M94.51,154c0-.33-1-.6-2.32-.6s-2.32.27-2.32.6,1,.6,2.32.6S94.51,154.34,94.51,154Z"/><path class="cls-5" d="M96.23,137.85c0-.34-1-.6-2.32-.6s-2.32.26-2.32.6,1,.6,2.32.6S96.23,138.18,96.23,137.85Z"/><path class="cls-20" d="M108.87,109.39c10.71-1.32,16-7.07,18.12-14.36a63.36,63.36,0,0,0-4.49-5.92c-3.16-5.49-6.64-7.63-9-8.45l.14-.32-1-1,0,0,3.18-17.3L97.87,50.42,91.31,73.59l-1.93-1.85-1.55,4.39,0,0a30.56,30.56,0,0,0-16.47,5.36,1.14,1.14,0,0,0-.26.09c-.89.53-1.77,1.11-2.64,1.71C78.78,92.59,90.67,111.64,108.87,109.39Z"/><path class="cls-6" d="M126.06,81.71c-2.61,2.69-26.13-2.06-26.82-4.81s-4.89-47.71,4.82-56.74c5-4.64,28.54-.17,31.12,6S132.25,75.35,126.06,81.71Z"/><path class="cls-13" d="M98.65,77.92l5.71-4.07s-11.1-30.52,3-56.61c0,0-7.72.3-10.93,14.8C94.23,41.8,91,62.56,98.65,77.92Z"/><path class="cls-6" d="M98.91,58.51c-1,3.13-12-8-10.51-12.92,1.62-5.4,7.92-4.33,9.79-.44S99.83,55.6,98.91,58.51Z"/><path class="cls-21" d="M97.18,55.54c-.55,1.72-6.6-4.42-5.79-7.11.89-3,4.36-2.39,5.39-.25A12.47,12.47,0,0,1,97.18,55.54Z"/><path class="cls-6" d="M97.68,56.71c-.38,1.17-4.5-3-4-4.86a1.94,1.94,0,0,1,3.67-.16A8.51,8.51,0,0,1,97.68,56.71Z"/><path class="cls-6" d="M11.35,229.88c-1.21,3.68-9.13,9.06-6.53,11.2,2.34,1.93,9,1.57,9.35-10.16Z"/><path class="cls-6" d="M12.77,236.78c-3.91-3.66-8.38,1.12-9.44,2.94-1.17,2,1,5.6,2.86,5.89S14.26,238.18,12.77,236.78Z"/><path class="cls-6" d="M9.59,242.63c.26,3.14,2.07,6.61,3.21,6.19s-.83-3.15-.38-6c.49-3.12.63-5.1-.57-5.35S9.32,239.49,9.59,242.63Z"/><path class="cls-6" d="M5.11,246.42c-1.35,2.35-1.51,3.88-.85,4.17s1.36-1.11,2.71-3.45,3.65-5,3-5.29S6.47,244.07,5.11,246.42Z"/><path class="cls-6" d="M2.52,244.55C.69,246.63,0,249.23.61,249.63s1.81-1.9,3.64-4,2.9-3.51,2.32-3.91S4.35,242.48,2.52,244.55Z"/><path class="cls-6" d="M1.88,241.23C.14,243.37-.35,245,.24,245.35S1.72,244.1,3.46,242s2.93-3.67,2.34-4.06S3.62,239.08,1.88,241.23Z"/><path class="cls-6" d="M190.55,214.32c2.64,2.12,4.38,10.09,7.06,8.71,2.4-1.24,4.37-6.59-5.23-10.61Z"/><path class="cls-6" d="M196.77,215.38c-4.38,1.93-2,7-.81,8.4s5,1,5.87-.4S198.44,214.65,196.77,215.38Z"/><path class="cls-7" d="M198.09,217.48c-3.7,2-3,4.85-1.91,6s7.33,1.36,6.82.07C202.34,221.9,199.51,216.74,198.09,217.48Z"/><polygon class="cls-22" points="177.47 219.83 177.93 223.5 215.88 224.78 216.44 218.91 177.47 219.83"/><polygon class="cls-22" points="216.5 224.85 221.89 227.74 223.61 216.51 217.3 218.51 216.5 224.85"/><polygon class="cls-23" points="217.9 218 214.12 218.4 214.12 224.93 217.25 225.33 217.9 218"/><polygon class="cls-23" points="223.09 216.28 221.38 227.91 222.04 228.2 223.95 216.05 223.09 216.28"/><path class="cls-6" d="M198.05,219.26c2.6,1.05,5.18.21,5.21-.83,0-.35-6.46-4.59-7.45-3.45C195.1,215.78,195.45,218.22,198.05,219.26Z"/><path class="cls-6" d="M200.36,219.28c1.1-1,2.18-1.62,2.7-1.09s-.25,1.44-1.35,2.41-1.64,1.8-2.63,1.11C198.46,221.28,199.26,220.25,200.36,219.28Z"/><path class="cls-6" d="M198.7,224.71a1.18,1.18,0,0,0,2-.07c.27-.55-.76-1-1.61-1.94s-1.46-1.47-1.73-.92S197.85,223.75,198.7,224.71Z"/><path class="cls-6" d="M201.31,224.65a1.32,1.32,0,0,0,2.28-.09c.29-.61-.85-1.1-1.8-2.16s-1.63-1.64-1.93-1S200.36,223.57,201.31,224.65Z"/><path class="cls-6" d="M196.26,224.51c.73,1.12,1.54,1.36,2,.9s-.26-1-1-2.11-1.26-1.88-1.7-1.42S195.53,223.39,196.26,224.51Z"/><path class="cls-6" d="M123.65,41.57s8,21.44,6.12,22.42-7.73-.94-9.32-3C119.48,59.79,122.46,40.68,123.65,41.57Z"/><polygon class="cls-12" points="128.33 38.66 137.07 43.05 137.8 35.96 129.31 34.66 128.33 38.66"/><polygon class="cls-12" points="123.15 33.72 110.14 31.72 108.29 38.63 122.25 37.39 123.15 33.72"/><path class="cls-21" d="M124.08,42.14c-.13-.09-.28,0-.44.37,1.75,4.82,7.14,20.15,5.59,21s-6.2-.47-8.46-2.15a.83.83,0,0,0,.1.26c1.6,2,7.49,3.94,9.33,3S124.08,42.14,124.08,42.14Z"/><path class="cls-24" d="M113.39,63.75c-.31.76-.88,8.76,5,10.09s7.84-8,7.87-8.08S113.39,63.75,113.39,63.75Z"/><path class="cls-25" d="M114.13,64.56c-.27.67-.79,7.69,4.24,8.84s6.78-7.05,6.81-7.13S114.13,64.56,114.13,64.56Z"/><path class="cls-24" d="M122,72.89l.69-3.78L125.74,66S124.63,71.35,122,72.89Z"/><path class="cls-26" d="M131.66,48.18c.25-1.77-.46-3.25-1.58-3.31S127.85,46.2,127.6,48s.45,3.25,1.57,3.31S131.41,50,131.66,48.18Z"/><path class="cls-26" d="M117.43,45.18c.25-1.77-.46-3.25-1.58-3.31s-2.23,1.32-2.48,3.09.45,3.25,1.58,3.31S117.18,46.94,117.43,45.18Z"/></g></g></svg>