<svg xmlns="http://www.w3.org/2000/svg" viewBox="0 0 413.3 440.18"><defs><style>.cls-1{isolation:isolate;}.cls-2{fill:#5b635e;}.cls-14,.cls-2,.cls-9{opacity:0.5;}.cls-3{fill:#ac80d6;}.cls-4{fill:#a46ac6;}.cls-5{fill:#543e3e;}.cls-6{fill:#493636;}.cls-7{fill:#442e2e;}.cls-8{fill:#f7d7b7;}.cls-9{fill:#ffefa5;mix-blend-mode:overlay;}.cls-10{fill:#fff0d9;}.cls-11{fill:#ffcd9c;}.cls-12{fill:#efe9c2;}.cls-13{fill:#ffbf61;}.cls-14{fill:#58f490;mix-blend-mode:multiply;}.cls-15{fill:#ef8f6f;}.cls-16{fill:#bc524a;}.cls-17{fill:#a53a37;}.cls-18{fill:#ffae85;}.cls-19{fill:#28f987;opacity:0.3;}.cls-20{fill:#06ff59;}.cls-21{fill:#261506;}.cls-22{fill:#351a01;}.cls-23{fill:#dbdddc;stroke:#050505;stroke-miterlimit:10;stroke-width:0.09px;}.cls-24{fill:#050505;}.cls-25{fill:#3d2222;}.cls-26{fill:#b75337;}</style></defs><g class="cls-1"><g id="COLOR_JUEGO" data-name="COLOR JUEGO"><ellipse class="cls-2" cx="63.61" cy="425.82" rx="61.43" ry="14.36"/></g><g id="Trazado_Juego" data-name="Trazado Juego"><path class="cls-3" d="M110,63.36l-2.28,51.43c5.69,4.95,13.18,9.75,18.35,23.09s22.26,5.27,24.34-4.63c1.93-9.15-3.78-22.63-10.08-33.95C129.23,79.32,114.53,64.87,110,63.36Z"/><path class="cls-4" d="M128,111.11c-4.88-12.6-11.22-26.54-16.78-31.79l-4.64,38.86c5.69,4.95,14,6,19.21,19.37,3.53,9.12,10.85,11,17.55,6.13C164.83,128,130.89,118.64,128,111.11Z"/><path class="cls-5" d="M125.73,303.76,108.81,185.34l-71.74,3.17,8.3,115.25c.75,9.2,15,114.16,15,114.16H63l7.53-114.16,4.94-60h5.3l18,60L120,417.92h2.21C122.18,396.46,125.73,303.76,125.73,303.76Z"/><path class="cls-6" d="M45.41,304.21c1.11,11.68,15,113.71,15,113.71H63l7.36-111.5C61.8,306,53.46,305.3,45.41,304.21Z"/><path class="cls-6" d="M99.26,306.28,120,417.92h2.21c0-21.46,3.56-114.16,3.56-114.16l0-.17C117.21,304.88,108.36,305.79,99.26,306.28Z"/><path class="cls-7" d="M51.94,306.65l-3.66-93.76,62.64-12.79L110,184.24l-74.18,4.47,9.51,115c.75,9.2,15,114.16,15,114.16H63l.06-.82C61,397.62,52.36,314.77,51.94,306.65Z"/><path class="cls-7" d="M105.34,308.26,84.75,241.93l-4,.54-2.74.95,20.79,60.34L120,417.92h2.21v-.72Z"/><polygon class="cls-7" points="62.85 240.21 75.27 244.51 82.89 245.01 92.49 236.9 83.05 242.19 76.59 242.36 62.85 240.21"/><path class="cls-3" d="M33.71,210l78.81-16.56s.6-54.49-1.39-66.41c0,0,7.62-56.62.33-62.92s-59.94-4.3-71.19,12.59S28.74,174.92,33.71,210Z"/><polygon class="cls-8" points="75.27 86.55 61.03 68.84 84.7 63.7 75.27 86.55"/><path class="cls-4" d="M114.52,77.36C109.16,90,104.83,114,101.93,118.84c-4,6.62-45.7,7-54.31,7-6.81,0-7.41-28.33-11.94-36.45-6.62,29.13-6.14,91.2-2,120.68l5.6-1.18a99.17,99.17,0,0,1-.63-11.18c0-32.56,15.56-65.47,34.77-66.57s34.77,30,34.77,62.59c0,.23,0,.46,0,.69l4.31-.91s.6-54.49-1.39-66.41C111.13,127.05,115.3,96,114.52,77.36Z"/><path class="cls-9" d="M111,178.12,30.51,194.57q.33,4.22.73,8c16.9-3.1,62.64-10.43,79.75-13.15C111,186.69,111,182.75,111,178.12Z"/><path class="cls-9" d="M112.46,154.09,30.77,167.26q.09,4.16.24,8.17c21.28-2.87,67.1-8.31,81.57-10C112.55,161.68,112.52,157.85,112.46,154.09Z"/><path class="cls-3" d="M9,152.78C4.91,136,17.73,93.44,41.51,75c5.94-4.61,9.2,8.74,1.25,38.54-4.8,18-8.62,29.62-8.49,33.43S11.46,163.21,9,152.78Z"/><path class="cls-4" d="M25.61,143.1c-.12,2.14-9.59,6.79-17,7.67a19.39,19.39,0,0,0,.38,2c2.51,10.43,25.45-2,25.32-5.81s3.69-15.41,8.49-33.43c.73-2.73,1.36-5.32,1.91-7.77C36,120.15,25.63,142.8,25.61,143.1Z"/><path class="cls-10" d="M0,152.76s15.53,22.52,33.28,7.06l.6-18.94s-14-16.95-31.12.82l3.48,5.38Z"/><path class="cls-8" d="M29.05,136.78c-1.27,6.48-7.88,11.42-15.87,11.42a18.47,18.47,0,0,1-7.13-1.42l.19.3L0,152.76s15.53,22.52,33.28,7.06l.6-18.94A23,23,0,0,0,29.05,136.78Z"/><path class="cls-10" d="M159.16,137.12s-10.56-25.33-31.44-16.62l-5.81,16.24s8.34,20.88,31.24,10.24l-2.34-6.57Z"/><path class="cls-8" d="M157.07,133.44a45.7,45.7,0,0,1-14.7-1.12c-6.87-1.59-12.7-4.34-16.43-7.4l-4.22,11.82S130.05,157.62,153,147l-2.34-6.57,8.34-3.29A33.88,33.88,0,0,0,157.07,133.44Z"/><path class="cls-11" d="M152.69,137.36c-.67-4.59-12.71-10.1-17.19-7.1S122.59,152,116.64,161.82l1.4,1.37C139.66,145.88,154.84,152,152.69,137.36Z"/><path class="cls-12" d="M114.46,419.56h23.77s-14.17-9.84-18.83-7.82S114.46,419.56,114.46,419.56Z"/><path class="cls-12" d="M64.66,419.56H47.17s11-9.23,14.65-7.06S64.66,419.56,64.66,419.56Z"/><path class="cls-13" d="M83.25,125.67a2.67,2.67,0,0,0,.9-3.19,3.52,3.52,0,0,0-.8-1.34A10.27,10.27,0,0,0,86,113.5,10.46,10.46,0,0,0,75.64,104a.5.5,0,0,0,0-.17A1.36,1.36,0,0,0,73,104a.71.71,0,0,0,.07.26,10.43,10.43,0,0,0-8.15,10.85,10.19,10.19,0,0,0,3.52,7,1.68,1.68,0,0,0,.44,2L64.4,135.4l-1.32.62,0,.41.74,0-.47,1.59-.49,0-.28.56.22.22-.24.51-1.3-.37-.17.3,1.23.5-.27.72-2,.1-.1.34,2.17.53-.19.47-1.12-.1-.08.46.93.35-.13.34-1.57-.13-.16.51,1.4.47-.4,1L61,145l1.76-4.59,1,.34.68-1.37L63.31,139,69,124.1a1.37,1.37,0,0,0,1.34-.7l.6.3a2.34,2.34,0,0,0,.84,1.5l-.82,13-2.15,1,.17,2.31.69.4-.09.95-.53.08,0,1.1-.94-.05.06.81L69,145l0,.86,1.17.36s-.06,1.35-.41,1.5l-.2.63-.69.09.2,1.62.81.39,1.38-.06L71.18,149l-.26-.06,1.36-23.54a1.32,1.32,0,0,0,1.35-.92l.59.08a1.82,1.82,0,0,0,1,1.69l.22,8.07-.92-.11-.41,2.17,1.3.21,0,.29-1.73-.13-.59,3.49,2.57.38v.09l1,.1-.87-14.6a1.73,1.73,0,0,0,.85-1.66l.41,0s0,.06,0,.1c.26,1.06,1,1.82,1.66,1.76l1,4.14-1,1.05.08,1.06-.21.1.13.5.3,0,.08.25,1.18-.05v.05l-.53.71.39,2.63,1.72-.39-2.79-10.22a2.07,2.07,0,0,0,.49-2.17,1.57,1.57,0,0,0-.09-.23l.26-.12a0,0,0,0,0,0,0,2.76,2.76,0,0,0,3,2.12l3.33,8.84.93,3.18-1.92,1.56.75,1.32.48-.12.29.63-.42.4.15.38.55-.06.19.43-.53.32.16.57.4-.07.36.85-.31.14.67,1.28L90,143.94l.39-.13Z"/><path class="cls-13" d="M66.14,115.07a9.33,9.33,0,0,1,18.6-1.4,9,9,0,0,1-2.41,6.79,1.92,1.92,0,0,0-1.25-.08,2.19,2.19,0,0,0-1.46,2.1c-.25.12-.49.23-.75.33a1.18,1.18,0,0,0-1-.26,1.08,1.08,0,0,0-.79.76c-.25,0-.51.07-.77.1a1.1,1.1,0,0,0-1.86,0l-.55-.07c.07-1.26-.5-2.4-1.31-2.58s-1.41.54-1.62,1.61a1.4,1.4,0,0,0-.17-.09,1.21,1.21,0,0,0-.74-1.4,1.09,1.09,0,0,0-1,.14A8.93,8.93,0,0,1,66.14,115.07Z"/><polygon class="cls-7" points="73.23 205.38 75.66 233.64 81.17 232.54 77.42 231.43 76.54 204.72 73.23 205.38"/><path class="cls-14" d="M58.92,108.76c19.85-4.46,30.59-35.11,34.26-47.9C75.62,60.69,51,64.76,41.81,74.79c-.1.07-.2.13-.3.21-.49.38-1,.78-1.44,1.18C37.17,92.34,39.73,113.07,58.92,108.76Z"/><path class="cls-11" d="M86.38,63.72c3.83-3.66,8.45-11.21,6.24-16.33s-8,1.86-8.13,9.35S86.38,63.72,86.38,63.72Z"/><path class="cls-15" d="M86.25,62c2.94-2.79,6.5-8.57,4.82-12.49S85,50.94,84.82,56.67,86.25,62,86.25,62Z"/><path class="cls-11" d="M85.27,62.23c2.41-2.29,5.31-7,3.94-10.21s-5,1.17-5.1,5.85S85.27,62.23,85.27,62.23Z"/><path class="cls-11" d="M56.49,63.47c-4.3-3.31-9.77-10.43-8-15.73S57,48.9,57.82,56.35,56.49,63.47,56.49,63.47Z"/><path class="cls-15" d="M56.46,61.74c-3.22-2.48-7.3-7.8-5.94-11.76s6.32.87,6.93,6.44S56.46,61.74,56.46,61.74Z"/><path class="cls-11" d="M56.92,61.73c-2.33-1.79-5.28-5.64-4.3-8.5s4.57.62,5,4.65S56.92,61.73,56.92,61.73Z"/><path class="cls-16" d="M76.25,6.65c0-.91,4.28-9.1-3.09-5.92s-26.86,20-26.86,20C48.67,33,54.12,48.47,56.49,66.67l30.25-1.54C89,43.93,92.64,25.51,89.61,17,85.55,5.61,76.25,6.65,76.25,6.65Z"/><path class="cls-17" d="M73.45,22.15c-8.47,0-15.84-3-19.83-7.52-4.2,3.43-7.32,6.12-7.32,6.12C48.67,33,54.12,48.47,56.49,66.67l30.25-1.54c2.15-20.7,5.71-38.74,3.05-47.49A29.77,29.77,0,0,1,73.45,22.15Z"/><path class="cls-11" d="M55.32,71.68S64.45,78.17,73.75,78c5.74-.11,15-9.21,15-9.21s-2.08-45.72-7.5-51.34c-6-6.18-23.29-3.06-24.73,2.65S55.32,71.68,55.32,71.68Z"/><path class="cls-18" d="M72.17,53.43C67.46,37,66.18,22,68.32,14.17c-5.71.54-11.06,2.85-11.83,5.92-1.43,5.72-1.17,51.59-1.17,51.59S64.45,78.17,73.75,78c2,0,4.46-1.2,6.79-2.67A128.31,128.31,0,0,1,72.17,53.43Z"/><path class="cls-19" d="M67,28.91c-3.15-10.19,1.11-10.64,2.53-15.52-3.81.34-12.88,5.32-13.39,7.23-1,3.55-.79,32-.79,32s6.11,4,12.33,3.92c1.35,0,4,1.29,5.52.38C71.1,53.16,68.55,34.05,67,28.91Z"/><path class="cls-16" d="M54.24,24.57C57.55,35,80.29,37.82,85.15,23.91S67.71,7.57,63.73,9.56,51.33,15.46,54.24,24.57Z"/><path class="cls-17" d="M55.83,15.52c0-.12-.06-.23-.09-.34a9.51,9.51,0,0,0-1.5,9.39C57.55,35,80.29,37.82,85.15,23.91a11,11,0,0,0,.66-4.17C77.37,27.8,58.89,24.44,55.83,15.52Z"/><path class="cls-11" d="M110,162.1a19.89,19.89,0,0,1,12.49-5.84l.89,2c-3.91,3.26-7.61,8.64-9.06,8.91C113.83,167.23,109.15,163,110,162.1Z"/><path class="cls-11" d="M115.81,165.94c-1.16,1.17-2.26,2.57-2.8,2.15-.87-.66-.06-1,1.08-2.71C115.64,163,115.81,165.94,115.81,165.94Z"/><path class="cls-11" d="M111.71,163.16c-1.32,1-2.33,2-2.9,1.41-1-1,.52-2.27,2-3.21C113,159.91,111.71,163.16,111.71,163.16Z"/><path class="cls-11" d="M113.33,161.75c.08-2.49-6,1.05-5.3-.75.52-1.45,5.82-2.55,9.14-3.1C119.66,158.37,113.33,161.75,113.33,161.75Z"/><path class="cls-11" d="M113.1,165.2c-1.17,1.16-2.37,2.23-3,1.79-1-.72.4-1.75,1.57-3.08C113.51,161.83,113.1,165.2,113.1,165.2Z"/><path class="cls-20" d="M29.89,141.38l.36,1.91s42.42,4.76,42.63,4.76l34.24-.78,5-3.41,1.14-1.11v-2.09s-7.24-1.91-8-1.91-33-.78-33-.78l.86-12.42-2.1-.06-2.38,1.89-.29,2.56s-2,4.19-2.2,4.26-10.8,2.52-11.44,2.57-12.57,2-13.49,2.19S34.73,140,34.45,140,29.89,141.38,29.89,141.38Z"/><path class="cls-20" d="M110.72,130.22l-9-18.28c-.47-1-1.12-2-2.18-2.12-1.54-.14-2.31,1.83-3.6,2.7-1.7,1.13-4.1.1-5.34-1.53s-1.72-3.68-2.61-5.52-2.49-3.61-4.54-3.63c-1.65,0-3.17,1.16-4.83,1-2.66-.16-4.33-3.46-7-3.59-1.94-.09-3.59,1.67-4,3.58a9.92,9.92,0,0,0,1,5.66,12.64,12.64,0,0,1,1.3,4.24,3.45,3.45,0,0,1-2.16,3.52c-2.87.77-5.11-3.71-8-3.09-1.59.34-2.42,2-3.2,3.47s-2.11,3-3.7,2.6c-1.86-.42-2.51-3.18-4.4-3.46a3,3,0,0,0-2.85,2c-.52,1.12-.67,2.38-1.17,3.51-1.22,2.76-4.21,4.16-6.74,5.8s-5,4.36-4.27,7.28c9.88.4,19.9.67,29.78,1.08a11,11,0,0,0,6.17,4.28,32.58,32.58,0,0,0,7.57,1L97.48,142a10.41,10.41,0,0,0,4.31-.35,9.78,9.78,0,0,0,3.87-3.31C107.62,135.87,109.07,132.87,110.72,130.22Z"/><rect class="cls-21" x="29.8" y="142.28" width="83.91" height="22.36"/><rect class="cls-21" x="27.91" y="164.63" width="87.59" height="1.39"/><rect class="cls-21" x="29.8" y="166.03" width="6.31" height="1.85"/><rect class="cls-21" x="107.41" y="166.03" width="6.31" height="1.85"/><polygon class="cls-21" points="113.72 142.28 71.86 138.51 72.5 125.49 114.36 129.26 113.72 142.28"/><polygon class="cls-21" points="29.84 142.28 71.71 138.51 71.07 125.49 29.2 129.26 29.84 142.28"/><ellipse class="cls-22" cx="29.54" cy="142.28" rx="0.35" ry="0.47"/><polygon class="cls-20" points="53.76 142.28 61.82 146.83 57.11 152.1 63.93 161.84 57.82 152.06 62.86 146.49 53.13 141.16 53.76 142.28"/><polygon class="cls-23" points="71.08 116.79 71.14 118.18 72.82 119.84 74.69 117.95 74.68 116.29 73.12 114.74 71.08 116.79"/><polyline class="cls-23" points="74.69 117.95 73.02 116.31 71.14 118.18"/><line class="cls-23" x1="73.02" y1="116.31" x2="73.12" y2="114.74"/><ellipse class="cls-24" cx="71.89" cy="118.17" rx="0.1" ry="0.13" transform="translate(-57.49 69.24) rotate(-37.97)"/><ellipse class="cls-24" cx="72.89" cy="117.21" rx="0.1" ry="0.13" transform="translate(-56.69 69.65) rotate(-37.97)"/><ellipse class="cls-24" cx="72.58" cy="116.27" rx="0.1" ry="0.13" transform="translate(-56.17 69.26) rotate(-37.97)"/><ellipse class="cls-24" cx="71.55" cy="116.71" rx="0.1" ry="0.13" transform="translate(-56.66 68.72) rotate(-37.97)"/><ellipse class="cls-24" cx="73.39" cy="116.29" rx="0.1" ry="0.13" transform="translate(-56.02 69.77) rotate(-37.97)"/><ellipse class="cls-24" cx="73.97" cy="116.37" rx="0.1" ry="0.13" transform="translate(-55.94 70.14) rotate(-37.97)"/><ellipse class="cls-24" cx="74.44" cy="116.4" rx="0.1" ry="0.13" transform="translate(-55.86 70.44) rotate(-37.97)"/><ellipse class="cls-24" cx="73.91" cy="118.22" rx="0.1" ry="0.13" transform="translate(-57.09 70.5) rotate(-37.97)"/><ellipse class="cls-24" cx="72.93" cy="119.21" rx="0.1" ry="0.13" transform="translate(-57.91 70.1) rotate(-37.97)"/><ellipse class="cls-24" cx="72.89" cy="118.19" rx="0.1" ry="0.13" transform="translate(-57.29 69.86) rotate(-37.97)"/><polygon class="cls-23" points="72.05 119.64 70.78 119.9 69.5 121.67 71.49 123.11 73.02 122.87 74.22 121.21 72.05 119.64"/><polyline class="cls-23" points="71.49 123.11 72.77 121.35 70.78 119.9"/><line class="cls-23" x1="72.76" y1="121.35" x2="74.22" y2="121.21"/><ellipse class="cls-24" cx="70.89" cy="120.58" rx="0.12" ry="0.09" transform="translate(-65.57 89.87) rotate(-46.87)"/><ellipse class="cls-24" cx="71.92" cy="121.36" rx="0.12" ry="0.09" transform="translate(-65.81 90.87) rotate(-46.87)"/><ellipse class="cls-24" cx="72.74" cy="120.94" rx="0.12" ry="0.09" transform="translate(-65.25 91.34) rotate(-46.87)"/><ellipse class="cls-24" cx="72.18" cy="120.05" rx="0.12" ry="0.09" transform="translate(-64.78 90.65) rotate(-46.87)"/><ellipse class="cls-24" cx="72.83" cy="121.68" rx="0.12" ry="0.09" transform="translate(-65.76 91.64) rotate(-46.87)"/><ellipse class="cls-24" cx="72.84" cy="122.22" rx="0.12" ry="0.09" transform="translate(-66.16 91.82) rotate(-46.87)"/><ellipse class="cls-24" cx="72.89" cy="122.66" rx="0.12" ry="0.09" transform="translate(-66.46 91.99) rotate(-46.87)"/><ellipse class="cls-24" cx="71.13" cy="122.44" rx="0.12" ry="0.09" transform="translate(-66.85 90.64) rotate(-46.87)"/><ellipse class="cls-24" cx="70.09" cy="121.68" rx="0.12" ry="0.09" transform="translate(-66.63 89.64) rotate(-46.87)"/><ellipse class="cls-24" cx="71.02" cy="121.5" rx="0.12" ry="0.09" transform="translate(-66.2 90.26) rotate(-46.87)"/><path class="cls-11" d="M65.46,158.61c-3.67.56-7,3.46-10.57,5l-.12,3.68C59.58,166,65.92,166.06,67,165,67.33,164.67,66.68,158.43,65.46,158.61Z"/><path class="cls-11" d="M65.18,165.54c1.59-.27,2.55-.14,2.53-.83,0-1.08,0-.83-2-.89C63,163.74,65.18,165.54,65.18,165.54Z"/><path class="cls-11" d="M65.33,160.6c1.53-.51,3.85-1.13,3.71-1.94-.23-1.42-3-.5-4.59.14C62,159.78,65.33,160.6,65.33,160.6Z"/><path class="cls-11" d="M63.29,161.11C61.58,160,68,156.8,66,156.21c-1.45-.4-5.57,3.43-7.89,5.83C57,164.35,63.29,161.11,63.29,161.11Z"/><path class="cls-11" d="M66.14,162.91c1.59-.29,2.39-.61,2.38-1.34,0-1.19-.88-.73-2.6-.55C63.26,161.31,66.14,162.91,66.14,162.91Z"/><path class="cls-11" d="M7.3,143.16c-4,2.59,1,17.32,7.7,20.41s25.12,2.33,39.77,3.74l7.14-1.43C26.67,152.25,23.31,132.91,7.3,143.16Z"/><path class="cls-15" d="M69.05,59.88a9.92,9.92,0,0,0,3.75,1.41c1.64,0,3.57-1.16,3.62-1.55.13-.94-3.78-12.33-4.74-12.43S68.93,58.52,69.05,59.88Z"/><path class="cls-11" d="M70.63,60.7c0,.23,1.58.55,2.12.53.92,0,3-1.15,3-1.58,0-1-2.51-14.12-3.79-14S70.48,59.21,70.63,60.7Z"/><path class="cls-25" d="M83.34,48.56c-.12-1.77-1.1-3.11-2.2-3s-1.9,1.67-1.78,3.44,1.1,3.11,2.21,3S83.46,50.34,83.34,48.56Z"/><path class="cls-25" d="M65.61,50.13c0-1.77-.9-3.16-2-3.09s-2,1.57-2,3.34.9,3.16,2,3.09S65.62,51.9,65.61,50.13Z"/><path class="cls-26" d="M72.48,69.17c.59-1.75,0-3.52-1.28-4s-2.84.57-3.44,2.32.41,2.26,1.71,2.72S71.88,70.9,72.48,69.17Z"/><path class="cls-16" d="M58,42.92a3.12,3.12,0,0,1,0-1.92c.59-1.43,9.24-1,9.71.94l.29,1.23c.34,1.4-2.42.65-4.86,1s-4.36,1.8-4.72.49Z"/><path class="cls-16" d="M75.66,46a3,3,0,0,0,.51,1.84c.94,1.27,9.48-.6,9.48-2.56V44.05c0-1.41-2.58-.23-5.11-.14s-4.79-1-4.83.33Z"/><ellipse class="cls-21" cx="114.29" cy="142.32" rx="0.63" ry="0.86"/><ellipse class="cls-21" cx="29.2" cy="142.28" rx="0.63" ry="0.86"/><ellipse class="cls-22" cx="413.02" cy="85.1" rx="0.27" ry="0.37"/></g></g></svg>